<svg version="1.0" viewBox="697.654 212.758 763.705 1271.776" preserveAspectRatio="xMidYMid meet" xmlns="http://www.w3.org/2000/svg">
  <defs></defs>

<g transform="translate(0.000000,1668.000000) scale(0.100000,-0.100000)" fill="inherit" stroke="none">
  <path d="M10093 14236 c-15 -13 -66 -43 -113 -66 -47 -23 -236 -125 -420 -225
-184 -100 -510 -276 -725 -390 -392 -208 -591 -322 -615 -350 -18 -21 -5 -45
24 -45 35 0 231 95 511 247 244 132 565 303 980 521 127 66 266 141 310 166
44 25 87 46 96 46 27 0 69 40 69 64 0 54 -68 73 -117 32z"></path>
  <path d="M10273 14245 c-42 -30 -38 -88 10 -120 68 -44 1659 -515 2091 -619
191 -46 226 -47 226 -11 0 23 -33 40 -232 114 -394 148 -1980 651 -2052 651
-12 0 -31 -7 -43 -15z"></path>
  <path d="M12678 13475 c-49 -27 -47 -74 11 -185 16 -30 65 -145 109 -255 89
-222 400 -985 627 -1540 328 -803 325 -795 355 -795 38 0 41 31 10 121 -15 46
-143 379 -283 739 -140 360 -328 842 -417 1070 -88 228 -180 462 -204 520 -24
58 -50 128 -58 155 -9 28 -21 69 -28 92 -22 71 -73 104 -122 78z"></path>
  <path d="M8051 13086 c-32 -34 -121 -465 -307 -1486 -151 -827 -159 -879 -143
-896 12 -12 18 -12 33 -1 20 15 42 100 176 697 49 217 103 454 120 525 73 306
230 1068 230 1116 0 35 -31 69 -63 69 -13 0 -34 -11 -46 -24z"></path>
  <path d="M12205 11269 c-789 -108 -1686 -232 -1969 -275 -507 -75 -1316 -193
-1611 -234 -456 -64 -614 -88 -843 -126 -61 -10 -81 -84 -27 -104 12 -5 54 -5
96 0 271 33 454 56 744 95 182 24 598 78 925 120 1184 150 1587 204 2565 341
338 47 549 81 563 90 74 47 35 147 -56 143 -15 -1 -189 -24 -387 -50z"></path>
  <path d="M12762 11189 c-25 -9 -42 -44 -34 -71 2 -10 21 -31 41 -47 51 -41
315 -206 441 -276 58 -32 160 -89 226 -127 67 -37 131 -68 143 -68 25 0 37 22
23 46 -17 31 -525 390 -702 496 -86 51 -107 58 -138 47z"></path>
  <path d="M12607 11092 c-10 -11 -17 -35 -17 -59 0 -66 100 -679 115 -702 10
-17 33 -13 44 7 5 10 4 120 -5 292 -20 411 -25 450 -58 472 -20 14 -63 8 -79
-10z"></path>
  <path d="M12800 10790 c-52 -52 -14 -85 170 -148 80 -28 210 -74 290 -102 234
-83 280 -91 280 -49 0 21 -76 63 -227 125 -48 20 -172 72 -275 115 -103 43
-194 79 -203 79 -8 0 -24 -9 -35 -20z"></path>
  <path d="M14050 10711 c-25 -16 -112 -71 -195 -122 -277 -171 -375 -239 -375
-258 0 -38 33 -30 175 44 192 99 476 255 498 273 35 30 11 92 -36 92 -12 0
-42 -13 -67 -29z"></path>
  <path d="M10333 10700 c-59 -24 -57 -89 6 -194 27 -44 91 -160 144 -256 119
-221 154 -279 180 -307 23 -25 47 -29 65 -11 28 28 15 65 -125 363 -47 99
-101 218 -120 264 -45 109 -58 127 -95 140 -17 6 -31 11 -32 10 -1 0 -11 -4
-23 -9z"></path>
  <path d="M9899 10630 c-23 -13 -43 -66 -90 -240 -133 -492 -143 -541 -107
-564 26 -16 51 15 83 99 76 200 215 617 215 644 0 54 -55 88 -101 61z"></path>
  <path d="M14157 10602 c-10 -10 -17 -31 -17 -47 0 -63 146 -715 188 -839 30
-89 54 -113 78 -81 12 16 14 35 9 90 -16 181 -141 853 -162 878 -21 23 -75 22
-96 -1z"></path>
  <path d="M7650 10470 c-28 -28 -26 -55 26 -337 25 -136 58 -319 74 -406 16
-87 34 -165 40 -173 18 -21 37 -17 43 8 6 21 -57 815 -69 870 -11 54 -76 76
-114 38z"></path>
  <path d="M7501 10395 c-11 -14 -23 -40 -26 -58 -4 -18 -24 -97 -46 -176 -22
-81 -40 -170 -40 -203 -1 -32 -4 -58 -7 -58 -3 0 -47 14 -99 30 -110 35 -146
37 -173 10 -24 -24 -25 -48 -5 -76 18 -27 39 -35 225 -88 293 -83 360 -89 360
-32 0 30 -23 50 -90 76 -30 12 -56 23 -58 25 -2 2 14 26 35 53 68 90 105 159
98 181 -8 27 -50 38 -72 20 -22 -19 -103 -187 -103 -216 0 -26 0 -26 -35 -13
l-25 10 24 37 c34 53 146 394 146 445 0 56 -73 78 -109 33z"></path>
  <path d="M12430 10220 c-396 -86 -787 -169 -1102 -235 -480 -100 -514 -109
-522 -132 -4 -9 0 -23 7 -31 18 -17 46 -13 497 68 450 81 927 166 1040 185
218 36 355 67 372 82 21 19 24 76 5 92 -29 23 -80 19 -297 -29z"></path>
  <path d="M7089 9777 c-12 -26 7 -220 62 -627 23 -178 34 -229 48 -244 15 -15
22 -16 40 -7 27 15 27 32 -4 374 -33 361 -50 494 -65 512 -20 24 -69 19 -81
-8z"></path>
  <path d="M9465 9779 c-465 -58 -1520 -221 -1555 -239 -33 -18 -25 -69 13 -83
30 -11 1218 133 1595 193 143 23 172 37 172 80 0 27 -22 60 -40 60 -5 0 -14 2
-22 4 -7 2 -80 -5 -163 -15z"></path>
  <path d="M14348 9518 c-29 -54 -259 -970 -256 -1018 2 -27 8 -36 25 -38 34 -5
49 28 113 245 32 109 64 211 70 228 27 71 150 521 150 549 0 41 -16 56 -57 56
-23 0 -36 -6 -45 -22z"></path>
  <path d="M13504 8950 c-32 -13 -45 -52 -108 -331 -67 -292 -176 -859 -188
-982 -12 -111 -7 -136 25 -124 23 9 79 192 171 562 100 398 165 693 173 786 5
61 4 67 -18 83 -26 18 -26 18 -55 6z"></path>
  <path d="M7247 8822 c-24 -27 -21 -51 19 -160 99 -264 357 -852 384 -877 25
-22 50 -13 50 19 0 40 -127 393 -282 786 -95 239 -126 282 -171 232z"></path>
  <path d="M13975 8422 c-16 -10 -122 -51 -235 -92 -113 -40 -211 -77 -218 -83
-7 -6 -12 -22 -10 -36 2 -19 9 -27 29 -29 14 -2 117 26 230 61 112 36 221 67
243 70 48 8 76 32 76 67 0 55 -58 76 -115 42z"></path>
  <path d="M7906 8368 c-9 -12 -16 -35 -16 -51 0 -23 113 -483 150 -607 14 -49
14 -50 -27 -35 -107 38 -243 74 -257 69 -29 -11 -39 -43 -22 -69 11 -17 28
-25 63 -30 27 -4 84 -13 127 -22 44 -8 94 -13 111 -10 l31 5 43 -151 c64 -226
82 -271 108 -275 44 -6 42 28 -23 368 -20 102 -58 286 -85 410 -28 124 -57
257 -65 295 -19 89 -40 119 -87 123 -27 2 -39 -2 -51 -20z"></path>
  <path d="M11013 7438 c-41 -20 -44 -54 -33 -322 13 -303 16 -321 50 -321 34 0
49 45 50 150 0 44 7 157 15 250 16 188 12 224 -31 244 -14 6 -26 11 -27 10 -1
0 -12 -5 -24 -11z"></path>
  <path d="M13078 7423 c-214 -165 -952 -819 -963 -854 -9 -28 16 -53 44 -44 60
19 990 796 1019 851 11 22 11 29 -3 50 -21 32 -53 31 -97 -3z"></path>
  <path d="M10082 7314 c-32 -22 -28 -71 12 -162 18 -43 61 -148 95 -234 34 -86
72 -172 84 -190 27 -40 62 -49 72 -18 9 28 2 60 -62 260 -31 96 -64 206 -74
244 -27 103 -72 139 -127 100z"></path>
  <path d="M13156 7208 c-14 -22 -29 -107 -41 -233 -6 -65 -59 -962 -76 -1300
-12 -228 -8 -257 35 -276 14 -7 36 -9 51 -5 51 13 54 34 71 578 22 667 24
1219 5 1241 -18 23 -28 21 -45 -5z"></path>
  <path d="M8245 7120 c-17 -18 -17 -23 -4 -50 16 -32 143 -152 429 -404 107
-94 286 -253 397 -353 236 -213 369 -323 389 -323 24 0 15 38 -18 76 -59 67
-972 933 -1081 1025 -64 54 -85 59 -112 29z"></path>
  <path d="M12006 7028 c-14 -23 -36 -315 -36 -484 0 -82 9 -104 42 -104 36 0
48 64 69 387 10 157 10 195 0 207 -19 23 -58 20 -75 -6z"></path>
  <path d="M11885 6979 c-11 -5 -63 -49 -115 -98 -90 -86 -94 -91 -78 -107 20
-20 23 -19 169 64 88 50 99 60 99 92 0 40 -38 65 -75 49z"></path>
  <path d="M11152 6874 c-24 -16 -29 -53 -12 -84 16 -30 221 -60 411 -60 80 0
89 2 100 21 19 36 -14 56 -136 83 -105 23 -297 56 -326 56 -8 0 -25 -7 -37
-16z"></path>
  <path d="M10105 6669 c-44 -23 -105 -56 -135 -74 -30 -18 -103 -58 -162 -89
-80 -43 -108 -63 -108 -77 0 -25 14 -24 96 7 38 15 148 55 244 90 96 36 182
72 192 81 25 23 23 68 -4 87 -31 22 -32 21 -123 -25z"></path>
  <path d="M9366 6584 c-9 -8 -16 -26 -16 -39 0 -18 -4 -22 -19 -18 -13 3 -29
-4 -46 -21 -41 -41 -32 -64 80 -206 29 -36 83 -110 120 -165 104 -152 133
-185 161 -185 19 0 24 5 24 25 0 33 -16 63 -103 200 -59 93 -177 299 -177 309
0 2 39 -12 87 -32 47 -19 100 -35 117 -36 26 -1 31 3 34 25 3 23 -7 33 -75 76
-136 87 -159 96 -187 67z"></path>
  <path d="M11573 6251 c-273 -136 -497 -256 -531 -284 -7 -5 -12 -22 -10 -36 5
-42 48 -39 174 13 193 79 697 315 721 338 25 24 30 65 11 91 -32 41 -52 34
-365 -122z"></path>
  <path d="M10005 5958 c-115 -5 -216 -11 -222 -13 -18 -6 -16 -42 3 -49 9 -3
37 -6 62 -6 26 0 130 -9 232 -19 296 -31 533 -44 684 -38 154 6 172 10 181 38
11 34 -4 58 -43 68 -109 29 -482 36 -897 19z"></path>
  <path d="M9230 5883 c0 -139 340 -1794 377 -1835 34 -38 93 -9 93 46 0 14 -16
97 -35 184 -19 86 -59 274 -89 417 -81 384 -271 1159 -296 1205 -6 11 -20 20
-30 20 -16 0 -20 -7 -20 -37z"></path>
  <path d="M13046 5318 c-41 -63 -313 -843 -426 -1222 -58 -194 -62 -212 -49
-235 18 -33 68 -40 91 -14 43 49 385 1125 448 1406 12 55 1 87 -30 87 -11 0
-26 -10 -34 -22z"></path>
  <path d="M9724 3945 c-8 -21 72 -153 316 -520 326 -491 430 -639 828 -1180
224 -304 233 -315 260 -315 28 0 52 26 52 56 0 14 -44 88 -109 181 -59 87
-179 261 -266 388 -179 260 -432 610 -575 795 -53 69 -151 197 -218 285 -136
181 -258 325 -273 325 -5 0 -12 -7 -15 -15z"></path>
  <path d="M12445 3698 c-41 -51 -98 -120 -126 -153 -28 -33 -116 -150 -196
-260 -81 -110 -224 -306 -318 -435 -95 -129 -250 -343 -345 -475 -95 -132
-183 -253 -196 -268 -30 -35 -32 -96 -6 -120 29 -26 74 -21 104 11 13 15 96
128 183 252 596 847 711 1011 800 1147 209 318 246 393 196 393 -13 0 -47 -34
-96 -92z"></path>
</g>

</svg>